<svg viewBox="0 0 182 27" xmlns="http://www.w3.org/2000/svg">
  <style>
    g { fill: black; }
    @media (prefers-color-scheme: dark) {
    g { fill: white; }
    }
  </style>

  <g id="fontsvg1693022733751" stroke-linecap="round" fill-rule="evenodd">
    <path
      d="M 8.4 5.34 L 11.25 5.52 A 2.167 2.167 0 0 1 12.796 6.277 C 13.523 7.033 13.939 8.116 14.024 8.353 A 2.392 2.392 0 0 1 14.04 8.4 L 14.58 8.28 L 14.61 4.68 L 15.57 1.35 L 15.33 1.02 L 14.04 1.62 L 10.53 0.36 C 10.53 0.36 8.49 0.48 7.62 0.57 L 3.66 0.36 L 3.42 0.66 L 4.86 2.73 A 8.108 8.108 0 0 0 4.651 2.957 C 3.777 3.937 1.947 6.287 1.636 6.668 A 0.493 0.493 0 0 1 1.59 6.72 L 1.83 9.33 A 0.942 0.942 0 0 0 2.056 9.844 C 3.282 11.503 9.12 14.875 10.38 16.838 A 1.266 1.266 0 0 1 10.62 17.49 C 10.62 18.371 10.454 19.942 8.407 20.276 A 5.257 5.257 0 0 1 7.56 20.34 L 7.44 20.34 C 5.1 20.31 3.12 18 3.45 15.45 L 3.21 15.12 L 1.44 16.53 L 0 24.87 L 0.39 25.23 L 2.97 24.21 A 2.534 2.534 0 0 0 3.033 24.256 C 3.412 24.526 5.471 25.898 8.369 26.055 A 9.983 9.983 0 0 0 8.91 26.07 C 13.86 26.07 15.84 20.97 15.84 20.97 L 15.72 18.09 A 24.041 24.041 0 0 0 15.73 18.056 C 15.835 17.693 16.758 14.49 16.56 14.49 A 2.75 2.75 0 0 1 16.511 14.489 C 16.187 14.483 15.09 14.43 15.09 14.43 C 15.09 14.43 7.274 8.481 6.382 7.677 A 0.347 0.347 0 0 1 6.3 7.59 A 0.562 0.562 0 0 1 6.351 7.43 C 6.636 6.805 8.003 5.41 8.374 5.343 A 0.146 0.146 0 0 1 8.4 5.34 Z M 91.08 10.02 L 89.25 9.3 L 87.12 9.75 L 87.03 8.19 A 1.783 1.783 0 0 1 87.023 8.091 C 86.983 7.088 87.498 3.92 87.563 3.521 A 22.845 22.845 0 0 1 87.57 3.48 A 0.712 0.712 0 0 0 87.581 3.353 C 87.581 3.197 87.53 3.048 87.44 2.938 A 0.499 0.499 0 0 0 87.15 2.76 L 82.38 2.4 L 82.35 2.4 L 82.2 2.64 L 83.76 5.22 L 83.25 6.78 C 83.25 6.78 83.329 15.289 83.339 16.433 A 123.294 123.294 0 0 1 83.34 16.56 A 10.728 10.728 0 0 1 83.294 17.568 C 83.118 19.427 82.493 20.458 82.274 20.911 A 2.837 2.837 0 0 0 82.26 20.94 L 82.59 21.6 A 0.761 0.761 0 0 0 82.765 21.634 C 83.216 21.673 83.911 21.431 84.695 21.321 A 4.966 4.966 0 0 1 85.38 21.27 C 86.01 21.27 87.57 21.63 87.57 21.63 A 3.952 3.952 0 0 0 87.881 21.618 C 88.85 21.542 88.95 21.107 88.95 20.97 A 0.543 0.543 0 0 1 88.544 20.724 C 87.761 19.748 87.36 16.142 87.36 15.03 L 87.3 13.62 L 89.04 13.08 L 91.53 13.71 L 93.45 13.32 L 93.39 15.03 A 7.761 7.761 0 0 1 93.38 15.393 C 93.313 16.799 92.905 19.932 92.173 20.764 A 0.51 0.51 0 0 1 91.8 20.97 A 0.368 0.368 0 0 0 91.809 21.049 C 91.852 21.241 92.073 21.601 93.059 21.628 A 4.391 4.391 0 0 0 93.18 21.63 C 93.18 21.63 94.721 21.274 95.358 21.27 A 1.713 1.713 0 0 1 95.37 21.27 C 96.54 21.27 97.62 21.78 98.16 21.6 L 98.49 20.94 A 2.633 2.633 0 0 0 98.483 20.925 C 98.234 20.404 97.41 19.085 97.41 16.59 A 105.836 105.836 0 0 1 97.411 16.476 C 97.421 15.381 97.5 6.81 97.5 6.81 L 96.99 5.25 L 98.55 2.67 L 98.4 2.43 L 98.34 2.43 L 93.6 2.79 C 93.339 2.842 93.169 3.099 93.169 3.383 A 0.712 0.712 0 0 0 93.18 3.51 A 20.762 20.762 0 0 1 93.186 3.546 C 93.251 3.931 93.804 7.245 93.72 8.097 A 1.235 1.235 0 0 1 93.72 8.1 L 93.66 9.39 L 91.08 10.02 Z M 50.91 2.43 L 50.88 2.46 L 50.7 2.7 L 52.26 5.28 L 51.75 6.84 C 51.75 6.84 51.724 15.191 51.72 16.388 A 459.259 459.259 0 0 0 51.72 16.53 A 10.454 10.454 0 0 1 51.674 17.526 C 51.503 19.316 50.903 20.321 50.67 20.788 A 3.163 3.163 0 0 0 50.64 20.85 L 50.97 21.51 C 51.372 21.652 52.126 21.366 53.015 21.238 A 5.225 5.225 0 0 1 53.76 21.18 A 2.344 2.344 0 0 1 53.948 21.189 C 54.621 21.244 55.83 21.54 55.83 21.54 A 3.952 3.952 0 0 0 56.141 21.528 C 57.11 21.452 57.21 21.017 57.21 20.88 A 0.533 0.533 0 0 1 56.804 20.627 C 56.05 19.639 55.74 16.049 55.74 14.94 L 55.44 8.01 C 55.44 7.77 55.44 7.44 55.53 7.02 L 58.05 6.6 L 59.4 8.16 L 58.62 10.2 L 56.4 11.34 L 56.58 12.18 L 56.25 12.9 L 58.26 14.82 C 58.454 15.762 58.674 19.034 58.706 19.527 A 45.011 45.011 0 0 1 58.71 19.59 A 0.551 0.551 0 0 1 58.696 19.704 C 58.608 20.111 58.137 20.85 58.11 20.85 L 58.44 21.48 A 0.74 0.74 0 0 0 58.656 21.526 C 59.075 21.556 59.664 21.332 60.363 21.216 A 4.568 4.568 0 0 1 61.11 21.15 C 61.74 21.15 63.3 21.51 63.3 21.51 A 3.977 3.977 0 0 0 63.605 21.499 C 64.553 21.426 64.674 21.013 64.68 20.89 A 0.204 0.204 0 0 0 64.68 20.88 A 0.328 0.328 0 0 1 64.538 20.84 C 64.187 20.665 63.659 19.947 63.45 19.32 L 62.55 15.48 L 62.61 14.52 L 59.82 12.78 L 62.25 12 L 63.45 7.83 L 62.01 4.35 L 58.95 2.67 L 54.69 2.97 L 50.91 2.43 Z M 120.12 2.43 L 120.09 2.46 L 119.91 2.7 L 121.47 5.28 L 120.96 6.84 C 120.96 6.84 120.934 15.191 120.93 16.388 A 459.259 459.259 0 0 0 120.93 16.53 A 10.454 10.454 0 0 1 120.884 17.526 C 120.713 19.316 120.113 20.321 119.88 20.788 A 3.163 3.163 0 0 0 119.85 20.85 L 120.18 21.51 C 120.582 21.652 121.336 21.366 122.225 21.238 A 5.225 5.225 0 0 1 122.97 21.18 A 2.344 2.344 0 0 1 123.158 21.189 C 123.831 21.244 125.04 21.54 125.04 21.54 A 3.952 3.952 0 0 0 125.351 21.528 C 126.32 21.452 126.42 21.017 126.42 20.88 A 0.533 0.533 0 0 1 126.014 20.627 C 125.26 19.639 124.95 16.049 124.95 14.94 L 124.65 8.01 C 124.65 7.77 124.65 7.44 124.74 7.02 L 127.26 6.6 L 128.61 8.16 L 127.83 10.2 L 125.61 11.34 L 125.79 12.18 L 125.46 12.9 L 127.47 14.82 C 127.664 15.762 127.884 19.034 127.916 19.527 A 45.011 45.011 0 0 1 127.92 19.59 A 0.551 0.551 0 0 1 127.906 19.704 C 127.818 20.111 127.347 20.85 127.32 20.85 L 127.65 21.48 A 0.74 0.74 0 0 0 127.866 21.526 C 128.285 21.556 128.874 21.332 129.573 21.216 A 4.568 4.568 0 0 1 130.32 21.15 C 130.95 21.15 132.51 21.51 132.51 21.51 A 3.977 3.977 0 0 0 132.815 21.499 C 133.763 21.426 133.884 21.013 133.89 20.89 A 0.204 0.204 0 0 0 133.89 20.88 A 0.328 0.328 0 0 1 133.748 20.84 C 133.397 20.665 132.869 19.947 132.66 19.32 L 131.76 15.48 L 131.82 14.52 L 129.03 12.78 L 131.46 12 L 132.66 7.83 L 131.22 4.35 L 128.16 2.67 L 123.9 2.97 L 120.12 2.43 Z M 115.92 16.11 L 115.5 16.35 A 2.447 2.447 0 0 1 114.338 18.348 C 113.423 19.001 112.168 19.331 111.344 19.417 A 3.946 3.946 0 0 1 110.94 19.44 A 2.872 2.872 0 0 1 110.231 19.338 C 108.243 18.823 105.12 16.394 105.12 13.05 A 11.502 11.502 0 0 1 105.254 11.291 C 105.734 8.189 107.347 6.32 107.585 6.109 A 0.145 0.145 0 0 1 107.61 6.09 A 6.242 6.242 0 0 1 107.638 6.076 C 107.909 5.935 110.087 4.824 111.06 4.8 A 1.273 1.273 0 0 1 111.09 4.8 C 113.88 4.8 114.75 8.1 115.77 8.1 L 116.31 7.68 A 1.83 1.83 0 0 1 116.295 7.64 C 116.215 7.42 115.836 6.297 115.735 4.575 A 14.547 14.547 0 0 1 115.71 3.72 C 115.71 2.67 116.85 0.21 115.65 0.21 C 115.32 0.21 115.05 0.69 113.22 0.66 C 112.05 0.66 110.25 0 110.25 0 A 0.369 0.369 0 0 0 110.077 0.061 C 109.75 0.245 109.111 0.78 106.95 0.78 C 102.69 0.81 100.14 8.49 100.14 12.87 C 100.14 19.95 105.81 25.47 109.71 25.47 A 8.543 8.543 0 0 0 110.051 25.462 C 111.483 25.403 114.669 25.047 115.117 24.996 A 50.836 50.836 0 0 0 115.17 24.99 C 115.955 24.99 118.1 22.085 118.38 21.702 A 9.848 9.848 0 0 0 118.41 21.66 A 21.698 21.698 0 0 0 118.389 21.598 C 118.193 21.019 116.675 16.589 116.017 16.146 A 0.178 0.178 0 0 0 115.92 16.11 Z M 30.24 21.78 L 30.42 21.18 C 30.285 20.64 29.81 19.639 29.716 18.789 A 2.542 2.542 0 0 1 29.7 18.51 A 6.051 6.051 0 0 1 29.739 17.841 C 29.821 17.1 30.011 16.521 30.052 16.402 A 1.565 1.565 0 0 1 30.06 16.38 C 30.09 15.21 29.61 14.52 29.37 14.49 A 0.942 0.942 0 0 1 29.357 14.548 C 29.271 14.889 28.703 16.629 26.083 16.814 A 6.582 6.582 0 0 1 25.62 16.83 A 3.857 3.857 0 0 1 24.562 16.678 C 24.009 16.52 23.547 16.264 23.234 16.032 A 2.845 2.845 0 0 1 23.07 15.9 A 19.791 19.791 0 0 1 22.972 14.889 C 22.93 14.283 22.932 13.753 23.01 13.44 C 23.13 13.05 23.22 12.63 23.25 12.21 L 23.37 12.51 C 25.86 12.45 26.82 13.53 27.06 13.53 L 27.39 13.23 A 1.515 1.515 0 0 1 27.385 13.218 C 27.336 13.096 26.94 12.092 26.94 11.22 A 4.82 4.82 0 0 1 26.956 10.827 C 27.008 10.191 27.171 9.758 27.204 9.675 A 0.723 0.723 0 0 1 27.21 9.66 L 26.55 8.97 A 0.452 0.452 0 0 1 26.522 9.006 C 26.375 9.183 25.609 9.944 23.25 10.05 A 37.087 37.087 0 0 1 23.196 9.812 C 23.017 9.016 22.79 7.823 22.98 6.9 L 23.28 6.48 L 27.12 6.48 C 27.946 6.48 28.366 7.959 29.691 8.037 A 1.849 1.849 0 0 0 29.76 8.04 L 30.06 7.62 A 0.563 0.563 0 0 1 30.009 7.534 C 29.825 7.16 29.55 6.028 29.55 5.07 A 3.165 3.165 0 0 1 29.584 4.636 C 29.666 4.051 29.875 3.38 29.97 2.88 C 30.026 2.544 29.977 2.365 29.677 2.342 A 0.915 0.915 0 0 0 29.61 2.34 A 1.113 1.113 0 0 0 29.445 2.356 C 29.113 2.407 28.516 2.566 27.289 2.579 A 15.316 15.316 0 0 1 27.12 2.58 A 34.133 34.133 0 0 1 26.933 2.579 C 25.729 2.572 20.015 2.511 18.654 2.373 A 5.102 5.102 0 0 1 18.63 2.37 L 18.33 2.34 L 18.06 2.58 L 18.81 4.95 L 18.93 14.91 A 16.997 16.997 0 0 1 18.852 15.909 C 18.587 18.367 17.88 19.71 17.88 19.71 A 0.61 0.61 0 0 0 17.926 19.93 C 18.199 20.631 19.602 21.51 19.71 21.51 L 26.64 21.36 A 26.659 26.659 0 0 1 27.313 21.396 C 29.066 21.511 30.156 21.76 30.235 21.779 A 1.087 1.087 0 0 1 30.24 21.78 Z M 181.71 2.7 L 181.47 2.43 A 0.735 0.735 0 0 1 181.447 2.445 C 181.301 2.537 180.451 3.03 179.01 3.03 A 7.97 7.97 0 0 1 178.883 3.029 C 178.5 3.022 177.525 2.993 176.16 2.94 L 173.73 2.16 L 171.9 2.94 A 2870.296 2870.296 0 0 1 171.361 2.961 C 170.184 3.007 169.564 3.03 169.38 3.03 C 167.86 3.03 166.947 2.502 166.841 2.437 A 0.558 0.558 0 0 1 166.83 2.43 L 166.56 2.94 A 2.554 2.554 0 0 1 166.577 2.98 C 166.665 3.19 167.069 4.2 167.205 5.376 A 6.499 6.499 0 0 1 167.25 6.12 C 167.25 7.406 166.751 8.642 166.663 8.85 A 2.065 2.065 0 0 1 166.65 8.88 C 166.65 8.88 166.785 9.123 167.003 9.148 A 0.32 0.32 0 0 0 167.04 9.15 A 1.716 1.716 0 0 0 167.724 9.012 C 168.838 8.535 169.254 6.983 169.945 6.931 A 0.475 0.475 0 0 1 169.98 6.93 L 172.62 6.93 L 172.38 7.44 L 172.38 16.41 A 10.457 10.457 0 0 1 172.334 17.406 C 172.159 19.238 171.535 20.251 171.314 20.728 A 2.497 2.497 0 0 0 171.3 20.76 L 171.63 21.39 A 0.722 0.722 0 0 0 171.821 21.433 C 172.402 21.491 173.375 21.06 174.42 21.06 C 175.05 21.06 176.61 21.42 176.61 21.42 A 3.977 3.977 0 0 0 176.915 21.409 C 177.863 21.336 177.984 20.923 177.99 20.8 A 0.204 0.204 0 0 0 177.99 20.79 A 0.545 0.545 0 0 1 177.582 20.542 C 176.85 19.625 176.453 16.407 176.405 15.067 A 7.005 7.005 0 0 1 176.4 14.82 L 176.13 10.26 L 176.4 8.46 L 175.89 6.93 L 178.41 6.93 A 0.544 0.544 0 0 1 178.733 7.049 C 179.257 7.432 179.7 8.631 180.665 9.024 A 1.717 1.717 0 0 0 181.32 9.15 A 0.971 0.971 0 0 0 181.484 9.138 C 181.636 9.111 181.733 9.038 181.71 8.88 A 2.193 2.193 0 0 1 181.695 8.845 C 181.619 8.664 181.268 7.792 181.15 6.773 A 5.655 5.655 0 0 1 181.11 6.12 A 8.276 8.276 0 0 1 181.159 5.221 C 181.284 4.078 181.609 3.241 181.708 2.71 A 2.596 2.596 0 0 0 181.71 2.7 Z M 165.93 8.04 L 166.23 7.62 A 0.73 0.73 0 0 1 166.184 7.528 C 166.047 7.215 165.825 6.388 165.747 5.562 A 5.967 5.967 0 0 1 165.72 5.01 A 3.17 3.17 0 0 1 165.758 4.551 C 165.827 4.082 165.977 3.565 166.08 3.11 A 6.917 6.917 0 0 0 166.14 2.82 C 166.196 2.484 166.147 2.305 165.847 2.282 A 0.915 0.915 0 0 0 165.78 2.28 A 0.573 0.573 0 0 0 165.76 2.28 C 165.476 2.29 165.192 2.507 163.724 2.519 A 15.723 15.723 0 0 1 163.59 2.52 L 159.18 2.52 L 154.38 2.28 L 154.11 2.52 L 154.86 4.92 C 154.86 4.92 155.1 17.13 155.1 17.31 A 13.242 13.242 0 0 1 155.083 17.992 C 154.985 19.892 154.48 20.363 154.251 20.834 A 1.5 1.5 0 0 0 154.23 20.88 L 154.56 21.54 C 155 21.687 155.817 21.376 156.737 21.255 A 4.953 4.953 0 0 1 157.38 21.21 A 2.638 2.638 0 0 1 157.581 21.219 C 158.295 21.274 159.6 21.57 159.6 21.57 A 3.938 3.938 0 0 0 159.912 21.558 C 160.91 21.479 161.01 21.02 161.01 20.91 L 160.98 20.91 A 0.653 0.653 0 0 1 160.494 20.628 C 159.772 19.76 159.36 17.097 159.36 15.63 L 159.09 13.2 L 159.3 11.88 L 159.48 12.39 C 161.961 12.331 162.93 13.377 163.188 13.409 A 0.094 0.094 0 0 0 163.2 13.41 L 163.56 13.11 C 163.56 13.11 163.237 12.565 163.121 11.856 A 3.013 3.013 0 0 1 163.08 11.37 C 163.08 10.41 163.35 9.78 163.35 9.78 L 162.69 9.09 A 0.7 0.7 0 0 1 162.652 9.126 C 162.453 9.305 161.447 10.09 159.03 10.17 A 5.597 5.597 0 0 1 158.946 9.763 C 158.796 8.888 158.734 7.636 158.76 7.02 L 159.06 6.45 L 163.26 6.45 A 0.838 0.838 0 0 1 163.626 6.543 C 164.16 6.802 164.682 7.533 165.306 7.868 A 1.311 1.311 0 0 0 165.93 8.04 Z M 37.74 21.45 L 38.07 21.03 C 38.07 20.892 38.318 19.229 38.665 17.05 A 487.405 487.405 0 0 1 39 14.97 L 40.53 14.25 L 42.39 15.3 A 395.254 395.254 0 0 1 42.675 17.267 C 42.975 19.381 43.174 20.957 43.113 20.999 A 0.005 0.005 0 0 1 43.11 21 L 43.44 21.45 L 43.62 21.45 A 3.398 3.398 0 0 0 43.962 21.431 C 44.612 21.364 45.395 21.15 45.75 21.15 A 0.286 0.286 0 0 1 45.808 21.16 C 46.036 21.217 46.803 21.492 47.633 21.557 A 4.37 4.37 0 0 0 47.97 21.57 L 48.06 21.57 A 0.328 0.328 0 0 0 48.154 21.553 C 48.594 21.416 49.623 20.509 49.213 20.49 A 0.291 0.291 0 0 0 49.2 20.49 C 47.227 20.49 44.592 7.116 44.28 5.499 A 42.137 42.137 0 0 1 44.25 5.34 A 9.355 9.355 0 0 1 44.248 5.228 C 44.234 4.17 44.423 3.918 44.695 3.052 A 11.561 11.561 0 0 0 44.73 2.94 L 44.25 2.4 A 3.85 3.85 0 0 1 43.835 2.52 C 43.531 2.589 43.228 2.62 42.892 2.632 A 13.683 13.683 0 0 1 42.39 2.64 L 41.55 2.64 L 40.95 2.64 C 40.62 2.64 40.26 2.67 39.9 2.67 C 38.49 2.67 36.96 2.58 36.51 2.4 L 36.24 3.06 A 0.466 0.466 0 0 1 36.255 3.076 C 36.372 3.21 37.112 4.106 37.14 4.95 C 37.14 5.898 36.358 9.19 35.875 11.037 A 55.607 55.607 0 0 1 35.73 11.58 C 34.8 14.94 33.51 20.34 31.53 20.34 A 0.176 0.176 0 0 0 31.481 20.346 C 31.176 20.435 32.235 21.483 32.58 21.54 A 0.959 0.959 0 0 0 32.655 21.556 C 32.726 21.568 32.79 21.57 32.864 21.57 A 10.017 10.017 0 0 0 32.91 21.57 A 4.464 4.464 0 0 0 33.349 21.546 C 34.156 21.466 35.003 21.205 35.23 21.158 A 0.29 0.29 0 0 1 35.28 21.15 C 35.808 21.15 36.707 21.382 37.447 21.438 A 3.912 3.912 0 0 0 37.74 21.45 Z M 141.21 21.45 L 141.54 21.03 C 141.54 20.892 141.788 19.229 142.135 17.05 A 487.405 487.405 0 0 1 142.47 14.97 L 144 14.25 L 145.86 15.3 A 395.254 395.254 0 0 1 146.145 17.267 C 146.445 19.381 146.644 20.957 146.583 20.999 A 0.005 0.005 0 0 1 146.58 21 L 146.91 21.45 L 147.09 21.45 A 3.398 3.398 0 0 0 147.432 21.431 C 148.082 21.364 148.865 21.15 149.22 21.15 A 0.286 0.286 0 0 1 149.278 21.16 C 149.506 21.217 150.273 21.492 151.103 21.557 A 4.37 4.37 0 0 0 151.44 21.57 L 151.53 21.57 A 0.328 0.328 0 0 0 151.624 21.553 C 152.064 21.416 153.093 20.509 152.683 20.49 A 0.291 0.291 0 0 0 152.67 20.49 C 150.697 20.49 148.062 7.116 147.75 5.499 A 42.137 42.137 0 0 1 147.72 5.34 A 9.355 9.355 0 0 1 147.718 5.228 C 147.704 4.17 147.893 3.918 148.165 3.052 A 11.561 11.561 0 0 0 148.2 2.94 L 147.72 2.4 A 3.85 3.85 0 0 1 147.305 2.52 C 147.001 2.589 146.698 2.62 146.362 2.632 A 13.683 13.683 0 0 1 145.86 2.64 L 145.02 2.64 L 144.42 2.64 C 144.09 2.64 143.73 2.67 143.37 2.67 C 141.96 2.67 140.43 2.58 139.98 2.4 L 139.71 3.06 A 0.466 0.466 0 0 1 139.725 3.076 C 139.842 3.21 140.582 4.106 140.61 4.95 C 140.61 5.898 139.828 9.19 139.345 11.037 A 55.607 55.607 0 0 1 139.2 11.58 C 138.27 14.94 136.98 20.34 135 20.34 A 0.176 0.176 0 0 0 134.951 20.346 C 134.646 20.435 135.705 21.483 136.05 21.54 A 0.959 0.959 0 0 0 136.125 21.556 C 136.196 21.568 136.26 21.57 136.334 21.57 A 10.017 10.017 0 0 0 136.38 21.57 A 4.464 4.464 0 0 0 136.819 21.546 C 137.626 21.466 138.473 21.205 138.7 21.158 A 0.29 0.29 0 0 1 138.75 21.15 C 139.278 21.15 140.177 21.382 140.917 21.438 A 3.912 3.912 0 0 0 141.21 21.45 Z M 78.6 12.84 L 78.33 13.05 A 2.607 2.607 0 0 1 77.176 15.088 C 76.357 15.716 75.301 16.05 74.7 16.05 A 3.688 3.688 0 0 1 74.34 16.03 C 73.213 15.917 70.737 15.255 70.391 12.349 A 5.98 5.98 0 0 1 70.35 11.64 C 70.35 7.95 72.66 6.42 75.33 6.42 A 0.845 0.845 0 0 1 75.709 6.527 C 76.387 6.874 77.198 7.958 77.929 8.18 A 0.865 0.865 0 0 0 78.18 8.22 L 78.45 7.8 A 6.042 6.042 0 0 1 78.384 7.678 C 78.24 7.406 78.031 6.936 77.981 6.227 A 4.507 4.507 0 0 1 77.97 5.91 A 8.81 8.81 0 0 1 77.996 5.23 C 78.155 3.174 78.951 2.19 78 2.19 A 1.021 1.021 0 0 0 77.833 2.208 C 77.482 2.268 76.836 2.46 75.57 2.46 C 74.767 2.322 73.938 2.03 73.815 1.986 A 2.787 2.787 0 0 1 73.8 1.98 C 73.537 1.98 73.502 2.947 71.397 2.998 A 7.257 7.257 0 0 1 71.22 3 C 69.33 3 65.85 7.32 65.85 12.12 C 65.85 18.18 70.86 21.57 74.25 21.57 C 75.287 21.57 77.973 21.204 78.322 21.155 A 24.176 24.176 0 0 0 78.36 21.15 C 79.061 21.15 80.651 18.663 80.858 18.336 A 7.035 7.035 0 0 0 80.88 18.3 A 24.141 24.141 0 0 0 80.86 18.239 C 80.667 17.639 79.106 12.84 78.6 12.84 Z M 40.53 5.88 L 40.95 5.88 C 40.95 5.88 41.311 8.123 41.722 10.889 A 416.762 416.762 0 0 1 41.82 11.55 L 40.65 11.19 L 39.6 11.46 A 346.003 346.003 0 0 1 39.948 9.31 C 40.219 7.665 40.439 6.402 40.507 6.008 A 100.838 100.838 0 0 1 40.53 5.88 Z M 144 5.88 L 144.42 5.88 C 144.42 5.88 144.781 8.123 145.192 10.889 A 416.762 416.762 0 0 1 145.29 11.55 L 144.12 11.19 L 143.07 11.46 A 346.003 346.003 0 0 1 143.418 9.31 C 143.689 7.665 143.909 6.402 143.977 6.008 A 100.838 100.838 0 0 1 144 5.88 Z"
      vector-effect="non-scaling-stroke" />
  </g>
</svg>
